<svg xmlns="http://www.w3.org/2000/svg" xmlns:xlink="http://www.w3.org/1999/xlink" width="500" zoomAndPan="magnify" viewBox="0 0 375 374.999991" height="500" preserveAspectRatio="xMidYMid meet" version="1.0"><defs><g/><clipPath id="id1"><path d="M 284 139.804688 L 298 139.804688 L 298 146 L 284 146 Z M 284 139.804688 " clip-rule="nonzero"/></clipPath><clipPath id="id2"><path d="M 277.015625 151 L 291 151 L 291 159 L 277.015625 159 Z M 277.015625 151 " clip-rule="nonzero"/></clipPath><clipPath id="id3"><path d="M 277.015625 154 L 284 154 L 284 165.304688 L 277.015625 165.304688 Z M 277.015625 154 " clip-rule="nonzero"/></clipPath><clipPath id="id4"><path d="M 283 154 L 291 154 L 291 165.304688 L 283 165.304688 Z M 283 154 " clip-rule="nonzero"/></clipPath><clipPath id="id5"><path d="M 292 151 L 305.515625 151 L 305.515625 159 L 292 159 Z M 292 151 " clip-rule="nonzero"/></clipPath><clipPath id="id6"><path d="M 292 154 L 299 154 L 299 165.304688 L 292 165.304688 Z M 292 154 " clip-rule="nonzero"/></clipPath><clipPath id="id7"><path d="M 298 154 L 305.515625 154 L 305.515625 165.304688 L 298 165.304688 Z M 298 154 " clip-rule="nonzero"/></clipPath></defs><g clip-path="url(#id1)"><path fill="rgb(100%, 8.628845%, 8.628845%)" d="M 291.265625 139.804688 L 297.796875 142.839844 L 291.265625 145.875 L 284.738281 142.839844 Z M 291.265625 139.804688 " fill-opacity="1" fill-rule="nonzero"/></g><path fill="rgb(9.799194%, 49.409485%, 81.17981%)" d="M 284.738281 142.839844 L 291.265625 145.875 L 291.265625 153.160156 L 284.738281 150.125 Z M 284.738281 142.839844 " fill-opacity="1" fill-rule="nonzero"/><path fill="rgb(100%, 87.059021%, 34.899902%)" d="M 291.265625 153.160156 L 297.796875 150.125 L 297.796875 142.839844 L 291.265625 145.875 Z M 291.265625 153.160156 " fill-opacity="1" fill-rule="nonzero"/><g clip-path="url(#id2)"><path fill="rgb(100%, 8.628845%, 8.628845%)" d="M 283.550781 151.945312 L 290.078125 154.980469 L 283.550781 158.019531 L 277.019531 154.980469 Z M 283.550781 151.945312 " fill-opacity="1" fill-rule="nonzero"/></g><g clip-path="url(#id3)"><path fill="rgb(9.799194%, 49.409485%, 81.17981%)" d="M 277.019531 154.980469 L 283.550781 158.019531 L 283.550781 165.304688 L 277.019531 162.269531 Z M 277.019531 154.980469 " fill-opacity="1" fill-rule="nonzero"/></g><g clip-path="url(#id4)"><path fill="rgb(100%, 87.059021%, 34.899902%)" d="M 283.550781 165.304688 L 290.078125 162.269531 L 290.078125 154.980469 L 283.550781 158.019531 Z M 283.550781 165.304688 " fill-opacity="1" fill-rule="nonzero"/></g><g clip-path="url(#id5)"><path fill="rgb(100%, 8.628845%, 8.628845%)" d="M 298.984375 151.945312 L 305.515625 154.980469 L 298.984375 158.019531 L 292.453125 154.980469 Z M 298.984375 151.945312 " fill-opacity="1" fill-rule="nonzero"/></g><g clip-path="url(#id6)"><path fill="rgb(9.799194%, 49.409485%, 81.17981%)" d="M 292.453125 154.980469 L 298.984375 158.019531 L 298.984375 165.304688 L 292.453125 162.269531 Z M 292.453125 154.980469 " fill-opacity="1" fill-rule="nonzero"/></g><g clip-path="url(#id7)"><path fill="rgb(100%, 87.059021%, 34.899902%)" d="M 298.984375 165.304688 L 305.515625 162.269531 L 305.515625 154.980469 L 298.984375 158.019531 Z M 298.984375 165.304688 " fill-opacity="1" fill-rule="nonzero"/></g><g fill="rgb(0%, 29.019165%, 67.83905%)" fill-opacity="1"><g transform="translate(105.04895, 166.999969)"><g><path d="M 19.84375 -21.578125 L 13.03125 -21.578125 L 13.03125 -0.5 L 8.046875 -0.5 L 8.046875 -21.578125 L 1.25 -21.578125 L 1.25 -26.546875 L 19.84375 -26.546875 Z M 19.84375 -21.578125 "/></g></g></g><g fill="rgb(0%, 29.019165%, 67.83905%)" fill-opacity="1"><g transform="translate(126.120612, 166.999969)"><g><path d="M 23.546875 -0.5 L 18.59375 -0.5 L 18.59375 -11.046875 L 7.453125 -11.046875 L 7.453125 -0.5 L 2.46875 -0.5 L 2.46875 -26.546875 L 7.453125 -26.546875 L 7.453125 -16 L 18.59375 -16 L 18.59375 -26.546875 L 23.546875 -26.546875 Z M 23.546875 -0.5 "/></g></g></g><g fill="rgb(0%, 29.019165%, 67.83905%)" fill-opacity="1"><g transform="translate(152.166482, 166.999969)"><g><path d="M 7.53125 -5.46875 L 5.578125 -0.5 L 0 -0.5 L 10.78125 -26.546875 L 15.28125 -26.546875 L 26.046875 -0.5 L 20.453125 -0.5 L 18.53125 -5.46875 Z M 13.03125 -19.71875 L 9.421875 -10.421875 L 16.625 -10.421875 Z M 13.03125 -19.71875 "/></g></g></g><g fill="rgb(0%, 29.019165%, 67.83905%)" fill-opacity="1"><g transform="translate(178.212352, 166.999969)"><g><path d="M 14.25 -11.046875 L 14.25 -0.5 L 9.296875 -0.5 L 9.296875 -11.046875 L 0 -26.546875 L 5.90625 -26.546875 L 11.78125 -16 L 17.671875 -26.546875 L 23.546875 -26.546875 Z M 14.25 -11.046875 "/></g></g></g><g fill="rgb(0%, 29.019165%, 67.83905%)" fill-opacity="1"><g transform="translate(201.758627, 166.999969)"><g><path d="M 32.546875 -26.546875 L 38.125 -26.546875 L 28.828125 -0.5 L 23.875 -0.5 L 19.21875 -16.625 L 14.578125 -0.5 L 9.59375 -0.5 L 0.296875 -26.546875 L 5.90625 -26.546875 L 12.09375 -9.171875 L 17.046875 -26.546875 L 21.40625 -26.546875 L 26.34375 -9.171875 Z M 32.546875 -26.546875 "/></g></g></g><g fill="rgb(0%, 29.019165%, 67.83905%)" fill-opacity="1"><g transform="translate(240.202533, 166.999969)"><g><path d="M 14.875 -27.171875 C 17.34375 -27.171875 19.617188 -26.554688 21.703125 -25.328125 C 23.796875 -24.109375 25.457031 -22.453125 26.6875 -20.359375 C 27.914062 -18.265625 28.53125 -15.988281 28.53125 -13.53125 C 28.53125 -11.0625 27.914062 -8.78125 26.6875 -6.6875 C 25.457031 -4.59375 23.796875 -2.929688 21.703125 -1.703125 C 19.617188 -0.484375 17.34375 0.125 14.875 0.125 C 12.40625 0.125 10.128906 -0.484375 8.046875 -1.703125 C 5.960938 -2.929688 4.304688 -4.59375 3.078125 -6.6875 C 1.859375 -8.78125 1.25 -11.0625 1.25 -13.53125 C 1.25 -15.988281 1.859375 -18.265625 3.078125 -20.359375 C 4.304688 -22.453125 5.960938 -24.109375 8.046875 -25.328125 C 10.128906 -26.554688 12.40625 -27.171875 14.875 -27.171875 Z M 14.875 -4.84375 C 16.4375 -4.84375 17.882812 -5.226562 19.21875 -6 C 20.550781 -6.78125 21.601562 -7.835938 22.375 -9.171875 C 23.15625 -10.503906 23.546875 -11.957031 23.546875 -13.53125 C 23.546875 -15.09375 23.15625 -16.539062 22.375 -17.875 C 21.601562 -19.207031 20.550781 -20.257812 19.21875 -21.03125 C 17.882812 -21.8125 16.4375 -22.203125 14.875 -22.203125 C 13.3125 -22.203125 11.863281 -21.8125 10.53125 -21.03125 C 9.195312 -20.257812 8.140625 -19.207031 7.359375 -17.875 C 6.585938 -16.539062 6.203125 -15.09375 6.203125 -13.53125 C 6.203125 -11.957031 6.585938 -10.503906 7.359375 -9.171875 C 8.140625 -7.835938 9.195312 -6.78125 10.53125 -6 C 11.863281 -5.226562 13.3125 -4.84375 14.875 -4.84375 Z M 14.875 -4.84375 "/></g></g></g></svg>